<?xml version="1.0" encoding="UTF-8"?>
<svg id="Layer_2" data-name="Layer 2" xmlns="http://www.w3.org/2000/svg" xmlns:xlink="http://www.w3.org/1999/xlink" viewBox="0 0 1199.17 1847.94">
  <defs>
    <style>
      .cls-1 {
        fill: url(#linear-gradient);
        stroke-width: 0px;
      }
    </style>
    <linearGradient id="linear-gradient" x1="1087.37" y1="2082.45" x2="338.76" y2="25.68" gradientUnits="userSpaceOnUse">
      <stop offset="0" stop-color="#fff"/>
      <stop offset=".05" stop-color="#f3ffe5"/>
      <stop offset=".17" stop-color="#daffaf"/>
      <stop offset=".27" stop-color="#c9ff87"/>
      <stop offset=".35" stop-color="#beff6e"/>
      <stop offset=".4" stop-color="#baff66"/>
      <stop offset="1" stop-color="#4db4ff"/>
    </linearGradient>
  </defs>
  <g id="Layer_1-2" data-name="Layer 1">
    <path class="cls-1" d="M959.78,370.77v-10.61C959.78,161.66,798.24,0,599.62,0S239.46,161.66,239.46,360.16v10.61c-53.7,9.38-105.95,24.67-155.85,45.77v43.76c54.04-14.74,109.86-22.55,166.35-23,5.25,0,10.5-.11,15.74,0,64.42.56,128.28,10.72,189.35,29.36v-101.48c-39.3-4.91-78.82-6.47-118.34-4.91v-.11c0-144.91,117.9-262.81,262.92-262.81s262.81,117.9,262.81,262.81v.11c-39.52-1.56-79.16,0-118.34,4.91v101.48c60.96-18.64,124.71-28.8,189.12-29.36,5.36-.11,10.61,0,15.85,0,56.49.45,112.2,8.26,166.35,23v-43.65c-49.79-21.21-102.04-36.51-155.63-45.89ZM1018.18,1176.3v233.66c0,187.88-152.84,340.6-340.72,340.6s-340.77-152.73-340.77-340.6v-339.09c135.77-23.17,239.48-141.65,239.48-283.86,0-158.89-129.28-288.05-288.17-288.05S0,628.12,0,787c0,142.21,103.7,260.69,239.48,283.86v339.09c0,120.66,48.97,230.18,128.38,309.6,79.25,79.25,188.77,128.38,309.6,128.38,241.49,0,438.1-196.49,438.1-437.98v-233.66h-97.38ZM50.54,787c0-130.96,106.61-237.52,237.46-237.52,28.71,0,55.97,5.37,81.43,14.66-120.61-15-225.65,65.76-248.99,176.51-22.67,108.18,52.83,215.91,163.25,218.6,86.86,2.13,159.73-60.33,174.05-142.6,12.82-73.2-36.88-145.57-111.09-149.37-63.41-3.13-116.8,43.32-124.8,103.93-5.37,40.74,21.88,80.98,63.07,82.83,26.86,1.23,50.54-13.49,62.4-35.48,5.04-9.46-2.58-20.99-13.32-20.99-5.43,0-10.24,3.13-12.93,7.95-6.94,12.37-20.65,20.54-36.15,19.2-21.77-1.68-36.1-22.33-34.64-44.1,3.47-49.25,46.45-87.75,97.27-83.84,53.22,3.97,89.1,55.35,82.38,108.4-9.18,71.97-72.25,127.6-147.47,124.69-87.75-3.36-148.92-87.42-134.99-174.16,17.85-111.43,130.29-191.57,252.07-155.75,32.52,9.63,60.55,27.48,82.77,50.82,27.09,38.62,43.32,85.51,43.32,136.22,0,130.96-106.67,237.46-237.63,237.46s-237.46-106.5-237.46-237.46ZM911,498.95c-158.89,0-288.05,129.17-288.05,288.05,0,142.21,103.7,260.69,239.47,283.86v339.09c0,50.93-20.76,97.21-54.23,130.73-33.52,33.47-79.75,54.12-130.74,54.12-101.97,0-185.02-82.94-185.02-184.85v-233.66h-97.21v233.66c0,155.64,126.59,282.23,282.23,282.23s282.35-126.59,282.35-282.23v-339.09c135.6-23.17,239.36-141.65,239.36-283.86,0-158.89-129.28-288.05-288.17-288.05ZM911,1024.46c-130.96,0-237.46-106.5-237.46-237.46s106.5-237.52,237.46-237.52c28.6,0,55.91,5.37,81.26,14.66-120.44-15-225.54,65.76-248.71,176.51-22.78,108.18,52.66,215.91,163.2,218.6,86.75,2.13,159.67-60.33,174.05-142.6,12.81-73.2-36.83-145.57-111.09-149.37-63.41-3.13-116.86,43.32-124.8,103.93-5.37,40.74,21.88,80.98,62.96,82.83,27.03,1.23,50.7-13.49,62.4-35.48,5.15-9.46-2.46-20.99-13.15-20.99-5.48,0-10.3,3.13-12.98,7.95-7,12.37-20.76,20.54-36.27,19.2-21.77-1.68-36.04-22.33-34.47-44.1,3.3-49.25,46.28-87.75,97.21-83.84,53.28,3.97,89.1,55.35,82.38,108.4-9.23,71.97-72.31,127.6-147.47,124.69-87.75-3.36-149.04-87.42-135.1-174.16,18.02-111.43,130.29-191.57,252.12-155.75,32.24,9.63,60.16,27.14,82.27,50.14,27.37,38.73,43.65,85.96,43.65,136.89,0,130.96-106.5,237.46-237.46,237.46Z"/>
  </g>
</svg>