<?xml version="1.0" encoding="UTF-8"?>
<svg id="Layer_2" data-name="Layer 2" xmlns="http://www.w3.org/2000/svg" xmlns:xlink="http://www.w3.org/1999/xlink" viewBox="0 0 2398.33 2816.01">
  <defs>
    <style>
      .cls-1 {
        fill: url(#linear-gradient);
        stroke-width: 0px;
      }
    </style>
    <linearGradient id="linear-gradient" x1="1557.65" y1="3224" x2="337.2" y2="-129.14" gradientUnits="userSpaceOnUse">
      <stop offset="0" stop-color="#fff"/>
      <stop offset=".06" stop-color="#f3ffe5"/>
      <stop offset=".21" stop-color="#daffaf"/>
      <stop offset=".34" stop-color="#c9ff87"/>
      <stop offset=".44" stop-color="#beff6e"/>
      <stop offset=".5" stop-color="#baff66"/>
      <stop offset="1" stop-color="#4db4ff"/>
    </linearGradient>
  </defs>
  <g id="Layer_1-2" data-name="Layer 1">
    <path class="cls-1" d="M320.36,2261.69v-100.49h-130.12v-122.23h-109.46v94.58c0,17.8-9.85,27.66-24.59,27.66H0v100.49h80.78v238.63c0,101.51,53.27,149.82,164.63,149.82h74.95v-102.53h-67.06c-44.3,0-63.05-19.7-63.05-58.16v-227.76h130.12ZM607.23,2161.21c-69.04,0-115.37,25.61-142.96,68.01v-68.01h-104.5v488.93h109.46v-255.34c0-75.89,36.42-124.2,125.15-124.2h46.34v-109.39h-33.49ZM692.97,2161.21v488.93h109.39v-488.93h-109.39ZM748.14,1974.03c-36.41,0-63.05,26.64-63.05,63.12s26.64,62.1,63.05,62.1,63.12-26.63,63.12-62.1-26.64-63.12-63.12-63.12ZM1123.75,2151.35c-69.03,0-128.14,27.59-163.68,74.88v-65.02h-104.43v654.81h109.39v-226c36.49,44.37,92.68,69.98,158.72,69.98,139.97,0,246.44-111.43,246.44-254.32s-106.47-254.32-246.44-254.32ZM1111.92,2556.51c-85.75,0-147.85-63.12-147.85-150.84s62.1-151.86,147.85-151.86,148.87,63.12,148.87,151.86-63.12,150.84-148.87,150.84ZM1675.8,2151.35c-69.03,0-128.22,27.59-163.68,74.88v-65.02h-104.5v654.81h109.46v-226c36.41,44.37,92.61,69.98,158.72,69.98,139.97,0,246.44-111.43,246.44-254.32s-106.47-254.32-246.44-254.32ZM1663.91,2556.51c-85.75,0-147.85-63.12-147.85-150.84s62.1-151.86,147.85-151.86,148.87,63.12,148.87,151.86-63.05,150.84-148.87,150.84ZM2282.01,2161.21l-138,363.71-139.96-363.71h-118.29l198.13,489.88-66.77,164.92h115.3l265.92-654.81h-116.32ZM1520.42,370.77v-10.61C1520.42,161.66,1358.87,0,1160.26,0s-360.16,161.66-360.16,360.16v10.61c-53.7,9.38-105.95,24.67-155.85,45.77v43.76c54.04-14.74,109.86-22.55,166.35-23,5.25,0,10.5-.11,15.74,0,64.42.56,128.28,10.72,189.35,29.36v-101.48c-39.3-4.91-78.82-6.47-118.34-4.91v-.11c0-144.91,117.9-262.81,262.92-262.81s262.81,117.9,262.81,262.81v.11c-39.52-1.56-79.16,0-118.34,4.91v101.48c60.96-18.64,124.71-28.8,189.12-29.36,5.36-.11,10.61,0,15.85,0,56.49.45,112.2,8.26,166.35,23v-43.65c-49.79-21.21-102.04-36.51-155.63-45.89ZM1578.81,1176.28v233.67c0,187.9-152.84,340.63-340.74,340.63s-340.74-152.73-340.74-340.63v-339.06c135.76-23.22,239.48-141.68,239.48-283.91,0-158.87-129.28-288.04-288.15-288.04s-288.04,129.17-288.04,288.04c0,142.23,103.72,260.69,239.48,283.91v339.06c0,120.69,49.01,230.21,128.39,309.59,79.27,79.27,188.79,128.39,309.59,128.39,241.49,0,438.09-196.49,438.09-437.98v-233.67h-97.36ZM611.19,786.98c0-130.96,106.62-237.47,237.47-237.47,28.69,0,55.93,5.36,81.39,14.63-120.58-14.96-225.63,65.76-248.97,176.51-22.66,108.18,52.81,215.92,163.22,218.6,86.86,2.12,159.76-60.29,174.05-142.57,12.84-73.24-36.84-145.58-111.09-149.38-63.41-3.13-116.78,43.32-124.82,103.94-5.36,40.75,21.88,80.94,63.08,82.84,26.91,1.23,50.58-13.51,62.41-35.5,5.02-9.49-2.57-20.99-13.28-20.99-5.47,0-10.27,3.13-12.95,7.93-6.92,12.39-20.66,20.54-36.17,19.2-21.77-1.67-36.06-22.33-34.61-44.1,3.46-49.24,46.44-87.75,97.24-83.84,53.25,4.02,89.09,55.38,82.39,108.41-9.16,72.01-72.23,127.61-147.48,124.71-87.75-3.35-148.93-87.42-134.98-174.16,17.86-111.42,130.29-191.58,252.09-155.74,32.49,9.6,60.51,27.46,82.73,50.8,27.13,38.63,43.32,85.52,43.32,136.21,0,130.96-106.62,237.47-237.58,237.47s-237.47-106.51-237.47-237.47ZM1471.63,498.94c-158.87,0-288.04,129.17-288.04,288.04,0,142.23,103.72,260.69,239.48,283.91v339.06c0,50.91-20.77,97.24-54.26,130.74-33.49,33.49-79.71,54.15-130.73,54.15-101.93,0-184.99-82.95-184.99-184.88v-233.67h-97.24v233.67c0,155.63,126.6,282.24,282.23,282.24s282.35-126.6,282.35-282.24v-339.06c135.65-23.22,239.36-141.68,239.36-283.91,0-158.87-129.28-288.04-288.15-288.04ZM1471.63,1024.44c-130.96,0-237.47-106.51-237.47-237.47s106.51-237.47,237.47-237.47c28.58,0,55.93,5.36,81.28,14.63-120.46-14.96-225.52,65.76-248.74,176.51-22.78,108.18,52.7,215.92,163.22,218.6,86.75,2.12,159.65-60.29,174.05-142.57,12.84-73.24-36.84-145.58-111.09-149.38-63.42-3.13-116.89,43.32-124.82,103.94-5.36,40.75,21.88,80.94,62.97,82.84,27.02,1.23,50.69-13.51,62.41-35.5,5.14-9.49-2.46-20.99-13.17-20.99-5.47,0-10.27,3.13-12.95,7.93-7.03,12.39-20.77,20.54-36.28,19.2-21.77-1.67-36.06-22.33-34.5-44.1,3.35-49.24,46.33-87.75,97.24-83.84,53.25,4.02,89.09,55.38,82.39,108.41-9.27,72.01-72.35,127.61-147.48,124.71-87.75-3.35-149.05-87.42-135.09-174.16,17.98-111.42,130.29-191.58,252.09-155.74,32.26,9.6,60.17,27.13,82.28,50.13,27.35,38.74,43.65,85.97,43.65,136.88,0,130.96-106.51,237.47-237.47,237.47Z"/>
  </g>
</svg>