<?xml version="1.0" encoding="UTF-8"?>
<svg id="Layer_2" data-name="Layer 2" xmlns="http://www.w3.org/2000/svg" xmlns:xlink="http://www.w3.org/1999/xlink" viewBox="0 0 4790.13 1789.93">
  <defs>
    <style>
      .cls-1 {
        fill: url(#linear-gradient);
        stroke-width: 0px;
      }
    </style>
    <linearGradient id="linear-gradient" x1="2969.02" y1="2323.23" x2="1812.23" y2="-855.02" gradientUnits="userSpaceOnUse">
      <stop offset="0" stop-color="#fff"/>
      <stop offset=".06" stop-color="#f3ffe5"/>
      <stop offset=".21" stop-color="#daffaf"/>
      <stop offset=".34" stop-color="#c9ff87"/>
      <stop offset=".44" stop-color="#beff6e"/>
      <stop offset=".5" stop-color="#baff66"/>
      <stop offset="1" stop-color="#4db4ff"/>
    </linearGradient>
  </defs>
  <g id="Layer_1-2" data-name="Layer 1">
    <path class="cls-1" d="M1845.18,823.55v-142.41h-184.4v-173.23h-155.13v134.04c0,25.23-13.96,39.2-34.85,39.2h-79.64v142.41h114.49v338.19c0,143.86,75.5,212.33,233.32,212.33h106.21v-145.31h-95.04c-62.78,0-89.36-27.92-89.36-82.43v-322.78h184.4ZM2251.73,681.14c-97.84,0-163.51,36.3-202.6,96.39v-96.39h-148.1v692.93h155.13v-361.87c0-107.56,51.61-176.03,177.37-176.03h65.67v-155.03h-47.47ZM2373.25,681.14v692.93h155.03v-692.93h-155.03ZM2451.44,415.86c-51.61,0-89.36,37.75-89.36,89.46s37.75,88.01,89.36,88.01,89.46-37.75,89.46-88.01-37.75-89.46-89.46-89.46ZM2983.75,667.18c-97.84,0-181.61,39.1-231.98,106.12v-92.15h-148v928.01h155.03v-320.3c51.71,62.88,131.35,99.18,224.95,99.18,198.36,0,349.26-157.93,349.26-360.43s-150.89-360.43-349.26-360.43ZM2967,1241.38c-121.52,0-209.53-89.46-209.53-213.77s88.01-215.22,209.53-215.22,210.98,89.46,210.98,215.22-89.46,213.77-210.98,213.77ZM3766.14,667.18c-97.84,0-181.71,39.1-231.98,106.12v-92.15h-148.1v928.01h155.13v-320.3c51.61,62.88,131.24,99.18,224.94,99.18,198.36,0,349.26-157.93,349.26-360.43s-150.89-360.43-349.26-360.43ZM3749.29,1241.38c-121.52,0-209.53-89.46-209.53-213.77s88.01-215.22,209.53-215.22,210.98,89.46,210.98,215.22-89.36,213.77-210.98,213.77ZM4625.28,681.14l-195.57,515.46-198.36-515.46h-167.65l280.79,694.28-94.63,233.73h163.41l376.87-928.01h-164.86ZM929.68,359.13v-10.27C929.68,156.59,773.2,0,580.82,0S231.96,156.59,231.96,348.86v10.27c-52.02,9.08-102.62,23.9-150.96,44.34v42.39c52.34-14.27,106.41-21.84,161.13-22.28,5.08,0,10.17-.11,15.25,0,62.4.54,124.25,10.38,183.4,28.44v-98.3c-38.07-4.76-76.35-6.27-114.63-4.76v-.11c0-140.37,114.2-254.56,254.67-254.56s254.56,114.2,254.56,254.56v.11c-38.28-1.51-76.67,0-114.63,4.76v98.3c59.04-18.06,120.79-27.9,183.19-28.44,5.19-.11,10.27,0,15.36,0,54.72.43,108.68,8,161.13,22.28v-42.28c-48.23-20.55-98.84-35.36-150.75-44.45ZM986.24,1139.36v226.34c0,182-148.04,329.94-330.04,329.94s-330.04-147.94-330.04-329.94v-328.42c131.5-22.49,231.96-137.23,231.96-275,0-153.88-125.23-279-279.11-279S0,608.39,0,762.28c0,137.77,100.46,252.51,231.96,275v328.42c0,116.9,47.47,222.98,124.36,299.87,76.78,76.78,182.87,124.36,299.87,124.36,233.91,0,424.34-190.33,424.34-424.23v-226.34h-94.3ZM48.99,762.28c0-126.85,103.27-230.01,230.01-230.01,27.79,0,54.18,5.19,78.83,14.17-116.79-14.49-218.55,63.69-241.15,170.97-21.95,104.79,51.15,209.14,158.1,211.74,84.13,2.05,154.75-58.4,168.59-138.09,12.44-70.94-35.69-141.01-107.6-144.69-61.42-3.03-113.11,41.96-120.9,100.68-5.19,39.47,21.2,78.4,61.1,80.24,26.06,1.19,48.99-13.09,60.45-34.39,4.87-9.19-2.49-20.33-12.87-20.33-5.3,0-9.95,3.03-12.55,7.68-6.71,12-20.01,19.9-35.04,18.6-21.09-1.62-34.93-21.63-33.52-42.72,3.35-47.69,44.99-85,94.19-81.21,51.58,3.89,86.3,53.64,79.81,105-8.87,69.75-69.97,123.6-142.85,120.79-85-3.24-144.26-84.67-130.74-168.7,17.3-107.92,126.2-185.57,244.18-150.86,31.47,9.3,58.61,26.6,80.13,49.2,26.28,37.42,41.96,82.83,41.96,131.93,0,126.85-103.27,230.01-230.12,230.01s-230.01-103.17-230.01-230.01ZM882.42,483.28c-153.88,0-279,125.12-279,279,0,137.77,100.46,252.51,231.96,275v328.42c0,49.31-20.12,94.19-52.56,126.63-32.44,32.44-77.21,52.45-126.63,52.45-98.73,0-179.19-80.35-179.19-179.08v-226.34h-94.19v226.34c0,150.75,122.63,273.38,273.38,273.38s273.49-122.63,273.49-273.38v-328.42c131.39-22.49,231.85-137.23,231.85-275,0-153.88-125.22-279-279.11-279ZM882.42,992.29c-126.85,0-230.01-103.17-230.01-230.01s103.17-230.01,230.01-230.01c27.68,0,54.18,5.19,78.73,14.17-116.68-14.49-218.44,63.69-240.94,170.97-22.06,104.79,51.04,209.14,158.1,211.74,84.02,2.05,154.64-58.4,168.59-138.09,12.44-70.94-35.69-141.01-107.6-144.69-61.43-3.03-113.22,41.96-120.9,100.68-5.19,39.47,21.2,78.4,60.99,80.24,26.17,1.19,49.1-13.09,60.45-34.39,4.98-9.19-2.38-20.33-12.76-20.33-5.3,0-9.95,3.03-12.54,7.68-6.81,12-20.12,19.9-35.15,18.6-21.09-1.62-34.93-21.63-33.42-42.72,3.24-47.69,44.88-85,94.19-81.21,51.58,3.89,86.3,53.64,79.81,105-8.98,69.75-70.07,123.6-142.85,120.79-85-3.24-144.37-84.67-130.85-168.7,17.41-107.92,126.2-185.57,244.18-150.86,31.25,9.3,58.29,26.28,79.7,48.55,26.49,37.52,42.28,83.27,42.28,132.58,0,126.85-103.17,230.01-230.01,230.01Z"/>
  </g>
</svg>