<?xml version="1.0" encoding="UTF-8"?>
<svg id="Layer_2" data-name="Layer 2" xmlns="http://www.w3.org/2000/svg" viewBox="0 0 778.71 1200">
  <defs>
    <style>
      .cls-1 {
        fill: #fff;
        stroke-width: 0px;
      }
    </style>
  </defs>
  <g id="Layer_1-2" data-name="Layer 1">
    <path class="cls-1" d="M623.27,240.77v-6.89C623.27,104.98,518.37,0,389.39,0s-233.88,104.98-233.88,233.88v6.89c-34.87,6.09-68.8,16.02-101.21,29.72v28.42c35.09-9.57,71.34-14.64,108.02-14.93,3.41,0,6.82-.07,10.22,0,41.83.36,83.3,6.96,122.96,19.07v-65.9c-25.52-3.19-51.18-4.2-76.85-3.19v-.07c0-94.1,76.56-170.66,170.74-170.66s170.66,76.56,170.66,170.66v.07c-25.66-1.01-51.4,0-76.85,3.19v65.9c39.58-12.11,80.98-18.7,122.81-19.07,3.48-.07,6.89,0,10.29,0,36.68.29,72.86,5.36,108.02,14.93v-28.35c-32.33-13.77-66.26-23.71-101.06-29.8ZM661.19,763.85v151.74c0,122.02-99.25,221.19-221.27,221.19s-221.27-99.18-221.27-221.19v-220.18c88.16-15.08,155.51-92,155.51-184.36,0-103.17-83.95-187.05-187.12-187.05S0,407.88,0,511.04c0,92.36,67.35,169.28,155.51,184.36v220.18c0,78.37,31.83,149.49,83.37,201.04,51.47,51.47,122.6,83.37,201.04,83.37,156.82,0,284.49-127.6,284.49-284.41v-151.74h-63.22ZM32.84,511.04c0-85.04,69.24-154.21,154.21-154.21,18.63,0,36.32,3.48,52.85,9.5-78.3-9.71-146.52,42.7-161.67,114.62-14.72,70.25,34.29,140.21,105.99,141.95,56.4,1.38,103.75-39.15,113.03-92.58,8.34-47.56-23.92-94.54-72.14-97-41.18-2.03-75.83,28.13-81.05,67.5-3.48,26.46,14.21,52.56,40.96,53.79,17.47.8,32.84-8.77,40.53-23.05,3.26-6.16-1.67-13.63-8.63-13.63-3.55,0-6.67,2.03-8.41,5.15-4.5,8.05-13.41,13.34-23.49,12.47-14.14-1.09-23.42-14.5-22.47-28.64,2.25-31.97,30.16-56.98,63.15-54.45,34.58,2.61,57.85,35.96,53.5,70.4-5.95,46.76-46.91,82.87-95.77,80.98-56.98-2.17-96.71-56.77-87.65-113.1,11.6-72.35,84.61-124.41,163.7-101.14,21.1,6.23,39.29,17.83,53.72,32.99,17.62,25.08,28.13,55.53,28.13,88.45,0,85.04-69.24,154.2-154.28,154.2s-154.21-69.16-154.21-154.2ZM591.59,324c-103.17,0-187.05,83.88-187.05,187.05,0,92.36,67.35,169.28,155.51,184.36v220.18c0,33.06-13.49,63.15-35.24,84.9-21.75,21.75-51.76,35.16-84.9,35.16-66.19,0-120.13-53.87-120.13-120.06v-151.74h-63.15v151.74c0,101.06,82.21,183.28,183.28,183.28s183.35-82.21,183.35-183.28v-220.18c88.09-15.08,155.44-92,155.44-184.36,0-103.17-83.95-187.05-187.12-187.05ZM591.59,665.25c-85.04,0-154.21-69.16-154.21-154.2s69.16-154.21,154.21-154.21c18.56,0,36.32,3.48,52.78,9.5-78.23-9.71-146.45,42.7-161.53,114.62-14.79,70.25,34.22,140.21,105.99,141.95,56.33,1.38,103.67-39.15,113.03-92.58,8.34-47.56-23.92-94.54-72.14-97-41.18-2.03-75.91,28.13-81.05,67.5-3.48,26.46,14.21,52.56,40.89,53.79,17.54.8,32.91-8.77,40.53-23.05,3.34-6.16-1.59-13.63-8.55-13.63-3.55,0-6.67,2.03-8.41,5.15-4.57,8.05-13.49,13.34-23.56,12.47-14.14-1.09-23.42-14.5-22.4-28.64,2.18-31.97,30.09-56.98,63.15-54.45,34.58,2.61,57.86,35.96,53.51,70.4-6.02,46.76-46.98,82.87-95.77,80.98-56.98-2.17-96.79-56.77-87.72-113.1,11.67-72.35,84.61-124.41,163.7-101.14,20.95,6.23,39.08,17.62,53.43,32.55,17.76,25.16,28.35,55.82,28.35,88.88,0,85.04-69.16,154.2-154.21,154.2Z"/>
  </g>
</svg>